<?xml version="1.0" ?><!DOCTYPE svg  PUBLIC '-//W3C//DTD SVG 1.1//EN'  'http://www.w3.org/Graphics/SVG/1.1/DTD/svg11.dtd'><svg width="24px" height="24px" viewBox="0 0 24 24" enable-background="new 0 0 24 24" version="1.1" xml:space="preserve" xmlns="http://www.w3.org/2000/svg" xmlns:xlink="http://www.w3.org/1999/xlink"><g id="Layer_27"/><g id="Layer_2"/><g id="Layer_3"/><g id="Layer_4"/><g id="Layer_5"/><g id="Layer_6"/><g id="Layer_7"/><g id="Layer_8"/><g id="Layer_9"/><g id="Layer_10"><path d="M21,5h-2V3c0-0.55-0.45-1-1-1s-1,0.45-1,1v2h-4V3c0-0.55-0.45-1-1-1s-1,0.45-1,1v2H7V3c0-0.55-0.45-1-1-1   S5,2.45,5,3v2H3C2.45,5,2,5.45,2,6v5v10c0,0.55,0.45,1,1,1h9h9c0.55,0,1-0.45,1-1V6C22,5.45,21.55,5,21,5z" fill="#FFBF42"/><g><path d="M6,7C5.4478,7,5,6.5527,5,6V3c0-0.5527,0.4478-1,1-1s1,0.4473,1,1v3C7,6.5527,6.5522,7,6,7z" fill="#5E4C9D"/></g><g><path d="M12,7c-0.5522,0-1-0.4473-1-1V3c0-0.5527,0.4478-1,1-1s1,0.4473,1,1v3C13,6.5527,12.5522,7,12,7z" fill="#5E4C9D"/></g><g><path d="M18,7c-0.5522,0-1-0.4473-1-1V3c0-0.5527,0.4478-1,1-1s1,0.4473,1,1v3C19,6.5527,18.5522,7,18,7z" fill="#5E4C9D"/></g><g><path d="M22,6v5H2V6c0-0.55,0.45-1,1-1h18C21.55,5,22,5.45,22,6z" fill="#D34A4B"/></g><path d="M12,11v11H3c-0.55,0-1-0.45-1-1V11H12z" fill="#85C756"/></g><g id="Layer_11"/><g id="Layer_12"/><g id="Layer_13"/><g id="Layer_14"/><g id="Layer_15"/><g id="Layer_16"><g id="Layer_17"/></g><g id="Layer_18"/><g id="Layer_19"/><g id="Layer_20"/><g id="Layer_21"/><g id="Layer_22"/><g id="Layer_23"/><g id="Layer_24"/><g id="Layer_25"/><g id="Layer_26"/></svg>